<svg xmlns="http://www.w3.org/2000/svg" width="30" height="40" viewBox="0.086 0 30 40" xml:space="preserve"><path d="M25.233 9.533c-.035.859.141 1.749.184 2.61.055 1.084.061 2.17.014 3.254a30.027 30.027 0 0 1-.828 5.861c-.762 3.082-2.186 6.138-4.172 8.621-.51.64-.99 1.338-1.551 1.938-.549.591-1.201 1.112-1.793 1.661-.477.442-1.088.758-1.607 1.147-.299.223-.535.479-.908.33-.795-.318-1.58-1.17-2.223-1.731-4.82-4.203-7.658-10.129-8.225-16.487-.23-2.579-.145-5.272.301-7.823 1.287.836 2.656 1.453 4.234 1.266 1.451-.171 2.508-.959 3.592-1.845.58-.473 1.023-1.003 1.51-1.574.438-.514.51-1.133.656-1.762 1.094 1.667 2.232 3.354 4.014 4.356.979.55 2.096.828 3.219.771a6.024 6.024 0 0 0 2.141-.533c.542-.239.931-.497 1.442-.06m-3.675 3.914c.527 5.336-.582 10.816-4.291 14.834-.473.513-1.014 1.022-1.598 1.402-.334.215-.756.695-1.109.455a14.711 14.711 0 0 1-2.277-1.895c-2.502-2.575-3.893-5.757-4.348-9.292-.172-1.331-.317-2.651-.178-3.997.035-.343.061-.688.105-1.03.01-.064.018-.452.064-.477.143-.076.773.385.941.451 1.4.546 3.018.072 4.105-.906.529-.478.977-.937 1.43-1.487.326-.395.137-.626.555-.015.451.663.996 1.298 1.691 1.715 1.084.711 1.957.789 3.18.737.607-.023 1.157-.531 1.73-.495m-.686-2.197c-2.592-.153-4.68-1.794-6.182-3.812-.664.888-1.518 1.642-2.414 2.289-2.102 1.521-4.465 2.147-6.926.973a26.604 26.604 0 0 0 .756 10.481c1.031 3.691 2.863 7.144 5.592 9.858a21.385 21.385 0 0 0 2.041 1.786c.367.282.742.554 1.125.813.078-.006.246-.186.307-.231.742-.561 1.527-1.089 2.211-1.723 5.76-5.326 7.393-13.459 6.752-20.984l-1.635.477c-.478.139-1.127.051-1.627.073"/><path fill="none" d="M29.462 0h29.489v40H29.462zM0 0h29.462v40H0z"/></svg>