<svg xmlns="http://www.w3.org/2000/svg" width="88" height="40" viewBox="0.77 0 88 40" xml:space="preserve"><path d="M39.819 18.713c-3.816-2.521-8.456-3.205-12.911-3.655a123.693 123.693 0 0 0-4.863-.412c-.538-.034-1.075-.068-1.613-.1l-.479-.03c-.18-.011-.169-.156-.402-.156-.279-.069-.704.03-.877-.277a17.587 17.587 0 0 0-.7-1.168c-.246-.37-.446-.301-.539.159-.094.473-.188.947-.284 1.42-.203 1.018-.425 1.974-1.147 2.757-.984 1.065-2.342 1.691-3.772 1.313-.854-.298-1.648-.852-1.924-1.745-.147-.478-.106-1.026-.133-1.523-.059-1.112.609-2.198 1.063-3.181.227-.489.27-.789.023-1.25a6.276 6.276 0 0 0-1.688-1.99c-.365-.283-1.232-1.057-1.71-.586-.44.432-.74 1.047-1.037 1.579-.912 1.633-1.894 3.363-2.373 5.185-.599 2.272-.47 4.667-.36 6.989.062 1.277.086 2.79.668 3.954.381.835.833 1.644 1.248 2.462.539 1.065 1.062 2.352 1.961 3.167.946.857 2.176-.845 2.719-1.498.365-.437.684-.875.757-1.468.054-.435-.254-.8-.428-1.177a7.728 7.728 0 0 1-.557-1.603c-.169-.794-.134-1.824.188-2.578.377-.881 1.509-1.326 2.402-1.386.962-.066 1.745.299 2.438.949.495.464 1.428 1.289 1.51 2.023.072.657.033 1.829.373 2.421.525.918.96-1.144 1.193-1.299.612-.407 1.681-.378 2.405-.446a143.79 143.79 0 0 0 4.809-.513c2.037-.257 4.112-.418 6.12-.867 3.532-.786 6.885-2.261 10.021-4.045-.674-.545-1.354-.977-2.101-1.425-1.551-1.025 0 0 0 0zM7.05 11.394c.205-.387.612-1.51 1.192-1.409.578.102.951.505 1.378.867.518.44-.164 2.463-.291 3.055-.106.503-.234.714-.777.49-.391-.161-.767-.391-1.143-.583-.348-.177-.797-.322-.997-.673-.254-.447.44-1.367.638-1.747.501-.95-.5.951 0 0zm2.253 18.169c-.61.508-.913.652-1.397.019-.363-.473-.652-.97-.944-1.487-.139-.245-.501-.75-.155-.983.413-.282.818-.581 1.249-.833.472-.276 1.125-.642 1.398.019.167.403.218.896.321 1.321.091.371.122.761.179 1.139.05.332-.421.586-.651.805-.45.375 0 0 0 0zm.075-7.171-1.909 1.667c-.654.57-1.59.685-1.999-.33-.427-1.06-.398-2.318-.479-3.447-.057-.791-.002-1.643.072-2.433.051-.556.089-1.315.461-1.771.266-.327.892-.504 1.252-.195l2.053 1.768c.82.707 1.698 1.433 2.367 2.289.21.271.087.409-.114.66-.514.643-1.118 1.217-1.704 1.792 0 0 1.326-1.3 0 0zm73.834-2.89c-2.466-1.479-4.867-2.786-7.706-3.406-1.438-.313-2.866-.668-4.332-.816-1.719-.175-3.439-.411-5.162-.516-1.706-.105-3.629.018-5.172-.578-.378-.144-.848-2.228-1.291-1.23-.289.654-.317 1.537-.495 2.244-.384 1.536-1.231 2.638-2.747 3.282-1.175.498-2.948.057-3.651-1.054-.587-.93-.518-2.49-.158-3.482.175-.482.408-.944.624-1.41.158-.34.577-.995.382-1.36-.319-.602-.668-1.163-1.143-1.66-.448-.467-1.448-1.513-2.189-1.363-.389.079-.693.74-.873 1.037-.543.895-1.023 1.83-1.493 2.764-.774 1.545-1.384 3.083-1.585 4.809-.135 1.167-.161 2.354-.132 3.53.053 2.085.061 4.343 1.02 6.233.44.871.873 1.746 1.325 2.611.448.857 1.338 3.207 2.664 2.566.889-.429 1.891-1.565 2.267-2.482.385-.937-.248-1.583-.565-2.454a5.18 5.18 0 0 1-.229-2.837c.358-1.937 2.909-2.556 4.434-1.521.735.5 1.458 1.27 1.894 2.05.255.458.243.987.301 1.497.032.296.329 2.197.796 1.404.215-.364.381-.674.514-1.072.161-.484.742-.493 1.194-.557 1.46-.208 2.937-.271 4.399-.456l6.108-.767c4.156-.522 8.183-2.312 11.793-4.365-.268-.215-.529-.428-.792-.641zm-34.083-8.108c.204-.387.611-1.51 1.192-1.409.576.102.95.505 1.377.867.518.44-.164 2.463-.292 3.055-.105.503-.233.714-.776.49-.391-.161-.767-.391-1.144-.583-.346-.177-.797-.322-.995-.673-.255-.447.438-1.367.638-1.747.5-.95-.5.951 0 0zm2.252 18.169c-.611.508-.912.652-1.398.019-.361-.473-.65-.97-.942-1.487-.141-.245-.502-.75-.156-.983.413-.282.819-.581 1.248-.833.473-.276 1.126-.642 1.398.019.168.403.22.896.322 1.321.09.371.121.761.179 1.139.049.332-.421.586-.651.805-.45.375 0 0 0 0zm.075-7.171c-.637.556-1.272 1.112-1.91 1.667-.653.57-1.589.685-1.998-.33-.427-1.06-.398-2.318-.479-3.447-.057-.791-.002-1.643.071-2.433.052-.556.09-1.315.461-1.771.267-.327.892-.504 1.253-.195l2.053 1.768c.819.707 1.699 1.433 2.367 2.289.21.271.087.409-.114.66-.514.643-1.118 1.217-1.704 1.792 0 0 1.325-1.3 0 0z"/><path fill="none" d="M88.001 0h88v40h-88zM0 0h88.001v40H0z"/></svg>