<svg xmlns="http://www.w3.org/2000/svg" width="73" height="40" viewBox="0.77 0 73 40" xml:space="preserve"><path d="M67.963 5.501c0 1.125 1.094 1.697 1.189 2.859.041.508-.045.981.025 1.49.1.688-.117 1.155-.34 1.818-.113.344.082 1.061.045 1.466-.021.208-.143 1.268-.451 1.268H40.867c-.832 0-.725-.034-1.104.82-.383.856-.645 1.706-.744 2.64-.043.402.035 1.521-.189 1.857-.41.618-2.184.163-2.994.422-.682.218-3.314.631-3.314 1.38 0 1.442.021 3.16-1.184 4.155-.994.82-2.537.919-3.764.919-1.018 0-2.311.199-3.172-.507-.945-.775-1.633-1.451-2.035-2.658-.055-.165-.404-1.703-.742-1.151-.15.245.217 1.47.268 1.743.131.724-.195.669-.74.443-.453-.189-1.047-.396-1.531-.292-.619.132-1.203.262-1.834.305-.457.03-.105 1.008-.158 1.39l-.264 1.833c-.061.422-.65.978-.9 1.344-.451.66-.627.797-.52 1.572.092.665.123 1.272.123 1.945 0 .666-.373.646-.848 1.083-.586.543-.66.721-.879 1.475-.098 1.091-2.1.874-2.979.84a121.14 121.14 0 0 1-3.857-.201c-1.121-.078-2.223.146-2.932-.855-.855-1.212-.547-2.532-.381-3.908.408-3.355 1.795-6.53 3.404-9.458.518-.939 1.049-1.873 1.545-2.825.576-1.105 1.404-2.266 1.799-3.447.18-.542.148-1.096.391-1.625.193-.426.445-.292.795-.478.283-.151.459-.586.742-.77.543-.352 1.395-.378 2.012-.498.717-.139.717-.285 1.232-.771.434-.409.713-.786 1.291-.918l.949-.219c.262-.06.658.105.895-.007 1.135-.54.027-1.776-.809-1.833-.539-.036-1.338.563-1.727-.001.561-.248 1.117-.524 1.73-.421.689.115 1.279.314 1.982.314.594 0 .32-.013.656-.379a7.29 7.29 0 0 1 .654-.626c.646-.539 1.201-.399 2.045-.399-.332-.197-1.287-.536-1.457-.863-.08-.151-.055-1.625.053-1.726.105-.099.76 0 .912 0 .33 0 .027.323.244.323.43 0 .41-.044.41.384 0 .329.199.208.506.208.477 0 1.494-.206 1.922 0 .145.069.291.485.449.485h.885c.971 0 1.955.108 2.895.108h8.791c.551 0 .725.216 1.203.216h23.255c.648 0 1.418-.447 2.02-.655.383-.132.75-.315 1.156-.315.348 0 .434-.092.512.247.069.294.043.567.428.454M46.654 7.065c.23-.784-1.373-.431-1.838-.431h-1.865c-.148 0-.936-.109-1.045 0-.592.6 1.709.431 1.838.431h2.91m9.926-.053c.23-.702-1.727-.377-2.139-.377h-2.77c-.039.71 1.645.379 2.088.379.94-.002 1.882-.002 2.821-.002m4.856.053h4.399c.109 0 .859.066.512-.323-.072-.081-.703 0-.809 0h-1.961c-.391 0-2.315-.292-2.141.323m-32.37 13.704c-.441.284-.764.488-1.268.621-.672.177-.963.022-1.117.748-.189.878.111 1.413.523 2.144.094.167.438.408.268.549-.33.275-.346.111-.666-.16-.885-.75-1.174-1.676-1.445-2.756-.021-.092-1.188-.406-1.311-.38a17.15 17.15 0 0 0-1.727.473c.234.626.467 1.25.73 1.863.395.922.676 1.139 1.504 1.731 1.148.819 3.412.771 4.766.449 1.09-.259 1.732-.712 2.289-1.673.32-.554.244-1.424.301-2.057.092-1.012.076-.956-.861-1.301-.536-.197-1.685-.998-1.986-.251"/><path fill="none" d="M73.203 0h50.463v40H73.203zM0 0h73.203v40H0z"/></svg>