<svg xmlns="http://www.w3.org/2000/svg" width="100" height="40" viewBox="0.933 0 100 40" xml:space="preserve"><path d="M46.189 5.703c.15-.328.387-.546.637-.796.247-.283.619-.389 1.115-.318.336.08.688.133 1.008.265.184.305.537.292.637.69.099.687.272 1.313.467 1.98.132.452-.198 1.417-.236 1.916-.104 1.374-.323 2.792-.284 4.17h-3.185a1.674 1.674 0 0 1-.265.425c-.538.23-1.387.128-1.959.148-.761.028-1.526.011-2.289.011-1.374 0-2.746-.106-4.118-.106-.735 0-1.469-.044-2.193.106-1.238.233-1.932.951-2.809 1.759-1.108 1.023-.775 2.491-.692 3.813l-.374.372v.105c-1.45.58-3.13 1.218-4.697 1.305-.993.056-1.805.014-2.791-.121-1.11-.152-2.611-.581-3.711-.283l-.9.479c-.496.682-.644 1.317-.885 2.131l-1.305 4.395c-.241.81-.411 1.41-.411 2.248 0 1.026.14 2.053.318 3.062 0 .919-.194 1.574-.584 1.964-1.231.737-3.044.373-4.431.373-1.58 0-3.238.268-4.697-.373l-.478-.584a14.59 14.59 0 0 1-.106-1.645c-1.027-.114-1.805-.152-2.707-.638a1.225 1.225 0 0 0-.159-.423c.024-.83-.178-1.599-.075-2.423.114-.913.386-1.87.447-2.777.834-1.669 1.569-3.384 2.314-5.095.435-.997.833-2.02 1.307-2.999.638-1.316 1.287-2.355.466-3.795-.529-1.055-2.408-1.025-3.45-1.22-.531-.518-.332-.989-.159-1.592.301-.336.934-.467 1.38-.531 1.08-1.016 1.661-2.02 2.07-3.449-.132-.698-.279-1.414-.266-2.125.071-.318.193-.513.371-.584.764-.056 1.374.139 2.123.265.741-.318 1.469-.689 2.282-.743V4.004c.617-.026 1.246.094 1.857.159.177.037.266.107.266.213l.159.955c1.595 0 3.201-.187 4.792-.158l2.885.051c.713.013 1.659-.092 2.352.107l.319.478H46.19v-.106m8.386 1.803c-.062-.404-.151-.812-.16-1.22.105-.354.265-.549.478-.583.755-.107 1.275.078 2.017.212.795-.161 1.553-.749 2.388-.743V4.163c.617-.023 1.246.096 1.857.159.359.32.379.72.425 1.168 3.327 0 6.652-.056 9.978 0l.371.424h20.538v-.052l.106-.213c.236-.145.464-.324.583-.583 1.13-.989 2.611.047 2.878 1.2.157.683.706 2.297.095 2.885-.109 1.536-.256 3.132-.213 4.67h-3.29l-.159.373c-1.137.377-2.709.159-3.898.159-1.421 0-2.84-.047-4.259-.097-1.725-.061-3.158.035-4.508 1.234-.623.554-1.383 1.108-1.469 2.008-.031.333-.089.672-.089 1.007 0 .339.349 1.174.107 1.367l-.373.424v.159c-1.65.66-3.472 1.186-5.244 1.284-2.039.113-5.019-1.234-6.802.042-.865 1.059-1.043 2.539-1.42 3.839-.393 1.352-.645 2.893-1.233 4.174-.02 1.847.974 4.174-.211 5.838-1.096.549-2.428.319-3.628.319h-4.652l-.054-.106a7.819 7.819 0 0 1-.85-.212c-.425-.247-.637-.778-.637-1.592.075-.224.129-.456.158-.689-1.015-.126-1.913-.153-2.813-.637v-.212l-.106-.212c.014-.686-.181-1.352-.151-2.054.042-1.033.307-2 .575-2.988h.055c.453-1.688 1.415-3.405 2.122-5.001.77-1.739 2.012-3.724 2.283-5.613l-.478-1.433c-.512-1.028-2.427-1.099-3.45-1.22-.472-.337-.509-1.239-.105-1.645.275-.229.956-.521 1.326-.531 1.292-1.216 2.259-2.442 1.912-4.3m-28.022 7.271c-.902 0-1.8-.002-2.701.031-.994.036-1.581.145-2.5.554-.354.247-.583.531-.689.849-.311.62-.08 1.282.053 1.91.302.301.603.601.902.902.816.196 1.511.673 2.387.707l2.283.089c2.441-.388 3.769-.99 3.98-1.803.1-.75.14-1.323-.266-2.017-.247-.46-.708-.866-1.38-1.221h-2.069m44.526.212c-.649 0-1.616-.161-2.229.107h-.159c-.635.316-1.419.573-1.644 1.327-.118.667-.284 1.333.052 1.963h.106l.796.796c.806.297 1.507.726 2.396.76l2.327.089c2.441-.319 3.733-.938 3.875-1.858l.157-.743-.37-1.274c-.246-.46-.707-.85-1.379-1.168l-3.928.001"/><path fill="none" d="M100.411 0h94.576v40h-94.576zM0 0h100.411v40H0z"/></svg>