<svg xmlns="http://www.w3.org/2000/svg" width="20" height="40" viewBox="0.914 0 20 40" xml:space="preserve"><path d="M13.512 6.782c.186.529.41 1.06.617 1.605.073.193.21.581.391.761.186.185.102.724.29.905.381.375.235 1.183.616 1.563.171.17.219.605.348.844.038.068.29.304.29.425 0 .313.005.486.122.726.173.356.389.523.494.988.144.635.084 1.48.084 2.198v12.797c0 .563.059.987-.33 1.255-.104.071-.105.082-.328.082-.334 0-.29.009-.29-.33 0-.365.248-.426.248-.636V17.091c0-.611.212-1.678 0-2.245-.059-.155-.401-.516-.494-.658-.171-.266-.294-.587-.494-.823-.196-.232-.348-.588-.618-.781v19.937c0 .214-.067.107-.246.242-.588.444-1.477.698-2.2.849-2.19.457-4.218.645-6.371-.197-.329-.13-1.548-.519-1.548-.928V16.063c0-1.172.022-2.349 0-3.52-.537-1.074 1.422-.988 1.931-1.077.25-.044 1.072-.058 1.072-.308 0-.429.246-.656.246-1.051V8.569c0-.075-.942-.06-1.026-.06-.175 0 .183-1.571.656-1.728.229-.075.612 0 .854 0h1.978c.273 0 2.297-.207 2.229.247.172-.344.481-.914.781-1.028.047.027.364-.005.41.041.076.076-.05.356 0 .454.089.174.318 0 .288.287m-5.388 8.31c-1.668 1.459-2.443 3.85-2.383 6.018.057 2.044.773 4.496 3.207 4.637-1.777-1.101-1.617-3.839-.043-5.019-.322.908.155 1.776.777 2.425.312.326 1.866 1.955 1.155 2.428 1.1.425 2.086-1.626 2.223-2.385.198-1.295-.136-2.542-.866-3.605-1.201-1.746-3.429-4.28-1.727-6.391l-2.343 1.892m5.923 11.972v-.123l-2.406.255c-.697.074-1.547.309-2.249.236l-4.847-.492v1.028c0 .304-.101.48.229.522 1.532.19 3.067.382 4.601.575.412.051.883-.086 1.289-.136l2.729-.344c.644-.081.654.002.654-.659v-.862"/><path fill="none" d="M20.777 0h28.367v40H20.777zM0 0h20.776v40H0z"/></svg>