<svg xmlns="http://www.w3.org/2000/svg" width="65" height="40" viewBox="0.276 0 65 40" xml:space="preserve"><path d="M61.042 8.221c-.064-.532-.178-1.074-.156-1.611.023-.569.234-.968-.439-.947-.207-.091-.965-.178-1.018-.396-.127-.507-.268-.962-.852-.803-.602.165-1.047.501-1.57.815-.426.254-.639.239-1.131.239-.406 0-1.428-.199-1.783 0-.197.111-.162.453-.287.525-.059.036-.619.042-.668 0-.209-.178.137-.619-.275-.622l-1.035-.007-8.625-.065-2.678-.021c-.287-.002-.279.477-.445.477-.361 0-.654-.187-.957-.191l-7.316-.125-3.449-.059c-.588-.01-.729-.581-1.223-.579a20203 20203 0 0 1-7.785.043c-.777.005-1.305.385-2.098.403-.426.009-1.154.202-1.473-.117-.197-.196-.855-1.095-1.121-1.095-.32 0-1.52-.196-1.742 0-.254.224.186 1.204-.1 1.367-.791.453-1.691 1.005-2.162 1.828-.342.6-.6.435-1.311.435-.186 0-.449.057-.609-.05-.098-.062-.374-.303-.491-.271-.187.049-.744.089-.869.229-.084.094 0 .633 0 .765 0 .439.422.958.619 1.34.223.427.553.693.67 1.191.121.506-.072 1.003-.186 1.492-.209.909-.855.898-1.67 1.15-.873.269-1.945.63-2.506 1.401-.551.756-.322.972.477.972.498 0 1 .024 1.5.038.926.027 1.898.022 2.816.153 1.33.241 1.992.92 2.281 2.231.156.714.012 1.318.012 2.018 0 .339-.279.75-.408 1.053l-.838 1.97c-.826 1.94-1.506 3.908-2.164 5.912-.488 1.488-.797 3.063-.74 4.637.021.597.137 1.757.939 1.871.367.053.734.061 1.104.081a64.07 64.07 0 0 0 7.012.012c1.912-.105 3.84-.588 5.748-.581-.201-.564-.875-1.679-.74-2.256.178-.762.34-1.512.471-2.284.273-1.602.633-3.193.893-4.797.234-1.44.279-2.63 1.541-3.542.68-.491 1.967.309 2.775.265 1.055-.057 2.113-.079 3.16-.221.547-.074 1.115-.108 1.65-.242.639-.16.902-.022.902-.671 0-1.135.088-2.317.525-3.377.33-.797.816-2 1.547-2.52.65-.461 1.334-1.181 2.186-1.181h21.303c.518 0 .877.079 1.1-.523.365-.992.695-2 .975-3.019.218-.806.814-1.916.714-2.74zM31.165 20.209c-.426.904-1.453.693-2.316.693-.697 0-1.795.218-2.459-.017-.59-.207-.734-.18-.939-.762-.113-.317-.113-.526-.113-.865v-2.892c0-1.327 1.307-1.149 2.232-1.149h2.59c1.479 0 1.195 1.681 1.195 2.656-.001.784.146 1.621-.19 2.336z"/><path fill="none" d="M65.053 0h56.167v40H65.053z"/><path fill="none" d="M0 0h65.054v40H0z"/></svg>