<svg xmlns="http://www.w3.org/2000/svg" width="53" height="40" viewBox="0.736 0 53 40" xml:space="preserve"><path d="M48.592 5.617c-.147-.471-.414-1.474-1.019-1.576-.269-.091-.546 0-.812 0-.187 0-.502 1.345-.861 1.345H34.69c-.148 0-.449.064-.563-.048-.141-.142-.255-.23-.449-.23H12.497c-.418 0-.825.086-1.171-.139-1.252-.816-2.454-.791-3.896-.916-.608-.053-.105.656-.423.899-.518.394-1.089.739-1.405 1.326-.599 1.109-.743 2.561-1.022 3.775-.209.902-.521 1.729-.575 2.658-.127 2.15 2.342 2.761 3.844 3.474.913.434.695.963.695 1.831 0 .443-.295.961-.44 1.375l-.613 1.762c-.322.929-.584 1.881-.872 2.821-.574 1.872-1.018 3.781-1.414 5.699-.237 1.24-.417 2.5-.417 3.764 0 .842.369 1.449.997 2.077.771.771 2.134.406 3.111.361 2.019-.095 4.037-.217 6.057-.286.877-.029 2.564-.275 2.141-1.539-.067-.199-.288-.378-.438-.527-.114-.114.098-.509.142-.649.141-.444.231-.899.336-1.352.213-.921.436-1.844.688-2.755.139-.505.312-1.008.397-1.524.07-.421.433-.794.479-1.214.117-1.046-.124-2.82.726-3.473.653-.502 1.039-.57 1.892-.502.603.048 1.152.046 1.757.022 1.952-.078 3.908.368 5.867.089 1.052-.192 2.107-.729 2.469-1.8.197-.585.197-1.238.256-1.849.04-.416.043-.869-.002-1.285-.055-.51-.32-1.072.151-1.347.75-.437 1.729-1.123 2.596-1.275.681-.12 1.488 0 2.176 0h7.855c.763 0 .872-1.043 1.061-1.691.092-.313 2.236-.171 2.63.023.161-.307.142-.627.169-.963.025-.303.37-.347.39-.64.039-.606.085-1.213.1-1.82.023-1.332.052-2.59-.199-3.901zM29.818 17.649v1.627c0 .963-1.563.664-2.198.664h-4.339c-.627 0-2.065.279-2.639-.104-.395-.264-.232-1.251-.232-1.644v-1.764c0-1.017 1.256-.753 1.957-.753h6.85c.202 0 .399.066.505.251.245.425.096 1.264.096 1.723z"/><path fill="none" d="M52.804 0h100.411v40H52.804z"/><path fill="none" d="M0 0h52.805v40H0z"/></svg>