<svg xmlns="http://www.w3.org/2000/svg" width="88" height="40" viewBox="0.769 0 88 40" xml:space="preserve"><path d="M80.262 15.992 84 15.613c-.065.26-.317.445-.493.629l-.854.893c-.708.741-1.518 1.509-2.417 2.019-1.701.967-3.377 2.025-5.253 2.626-2.75.881-5.685 1.103-8.541 1.364-1.182.108-2.38.089-3.566.121-.574.015-1.153-.023-1.729-.04-.548-.017-1.135.028-1.676-.062l-4.521-.74c-1.211-.198-2.41-.547-3.606-.827-1.241-.289-2.674-.117-3.949-.134l-.598-.008c-.051 0-.206-.283-.237-.328-.125-.173-.479.18-.648.242l-2.104.777c-.771.284-1.747.824-2.583.771-.366-.024-.621-1.002-.733-1.29-.699-1.799-1.615-4.556-4.006-4.348-.939.082-1.809.159-2.358 1.049-.171.277-.371.551-.518.842-.183.367-.215.564-.66.59-.637.037-1.362-.192-1.979-.304a17.953 17.953 0 0 0-1.579-.223c-1.254-.112-2.673-.374-3.934-.167-.637.104-1.271.201-1.901.34-.565.124-1.288.388-1.868.344-.581-.044-1.226-.385-1.78-.569-.766-.255-1.859.628-2.296 1.192-.464.602-.597 1.37-.971 2.018-.146.254-.239.611-.536.679-.391.088-.824.244-1.139-.094-.557-.599-1.068-1.376-1.926-1.472-1.132-.125-1.966.558-2.729 1.318-1.136 1.132-2.124 2.396-3.175 3.603-.427.491-.829 1.087-1.322 1.51l-.877.752c-.271.233-.439.408-.652-.02-.396-.795-.267-1.731-.251-2.585.028-1.478.573-3.022 1.19-4.346 1.441-3.097 4.168-5.237 7.049-6.943 2.252-1.333 4.88-1.98 7.435-2.442 1.156-.209 2.31-.466 3.478-.591l5.095-.544c.366-.039.882-.194 1.249-.125.205.038.489.195.673.201l1.127.036c1.365.044 2.729.102 4.094.162.159.007.224-.171.364-.171h.845c.367 0 .739-.02 1.105.008l3.204.247 4.49.346 1.429.11.247.019c.379.029.457.457.605.679.033.05.059-.202.056-.216l-.07-.375 2.619.024c.412.003.564-.127.564.306 0 .239-.006.196-.241.196h-.693c.173.369.357.834.789.963.191.049.473-.011.669-.016l2.624-.062c1.225-.029 2.448-.136 3.67-.212.459-.028 1.025-.276 1.467-.134l2.327.75c1.84.594 3.796 1.196 5.725 1.374l7.585.699c1.831.17 3.614.05 5.457-.032z"/><path fill="none" d="M88 0h93v40H88zM0 0h88v40H0z"/></svg>