<svg xmlns="http://www.w3.org/2000/svg" width="137" height="40" viewBox="0.128 0 137 40" xml:space="preserve"><path d="m132.043 15.743-23.484-.052-.053-.923.461-.051.051-.359-7.537-.103v-.205l-3.129.052-.615.204-5.434-.051 1.078.205v.923l-.258.308-1.18-.051v.41h-.871v-1.539h.203v-.205l-3.332-.102-.104.307-.102.77-.102.154-.256.103-.258-.154-.205-.103.053-.718-.104-.308h-.668l-.051 1.128-.205.205-.203.154h-.359l-.309.667-18.92.154-.359-.205-.461-.103-.975.358-.102-1.282-.924.052.051.82-.051.103-.152.257-.309.103-.154.051-.154-.051c-.137 0-.238.067-.307.205l-.205.308-.104.205v4.358l.309.104.051.36-.666.257v1.588c.066 1.232.221 2.377.461 3.437l1.127 3.999.668 2.104.205.257L56.355 36h-.205v-.207l-.82-2.718-1.18-4.563-.41-3.078-.102-1.332-.564.103-.719-.103h-4.818l-1.59.153h-.258c-.238 0-.428.051-.563.153l-.309.308-1.127 2.153.563.667-.152.103a5.612 5.612 0 0 0-.719.309l-.359.307-.102.153-2.205 4.309-.053.41.258.409.205.154-.205.462-7.23-1.691 6.512-11.281.154-.463.102-.923-.357-.922-.564-.615-.615-.308-1.641-.052v.205l-.463.051-.051-2.82-1.281-.051-.053-.462h-5.178l-1.23.924-4.873.103v.461l-4.256.052.051 2.666h-2.973v1.077h-1.436v-1.025l-4.82 3.025v-2.461l-6.104 2.769-.051 1.025-.051.154-.256.204-.205-.204L4 23.435l.104-13.64H9.54l.204.205.154.718 13.998.153.154.103.102.257 11.334.052-.053-.462h1.334v-.359l.461-.051.053.359 1.332-.052v-.615h1.334l.102.103 3.436-5.486.154-.206.41-.307.514-.207h.307l17.076 1.846.514.104.871.513.514.871.203.462-.102 3.333.359-.052.051-1.486 1.076.205v-.36l.359-.051v-.103l.104-.154.256-.103 18.973.308.205.41v.513l.514.052.102.052.154.204.102 1.231h.666l.053-2 3.129-4.41.307-.256c.205-.172.41-.239.615-.206.514.069.889.257 1.129.564l.152.358-.053.155.051 5.795h5.436l.719.256 3.076-.052v-.204h7.539V10.41h22.973l.205.205v4.872l-.155.256M91.123 8.77l-.256-.258-.205-.666-.051-.513-1.181-.103-1.846 2.872.258.205h3.486l.256-.307V8.77h-.461m-3.23 3.025h3.281l.154-.513h-3.436v.513M62.201 6.77l-.152-.103H47.332l-.564.256-.463.462-.205.256-.82 2 .309.308 16.357-.102.205-.052.41-.205c.41-.274.617-.719.617-1.334 0-.513-.189-.923-.566-1.229l-.411-.257M8.924 16.307l-.205-.051H4.924l-.205.051-.154.308.205.257.154.102H8.77l.154-.152.154-.257-.154-.258m-4.36-6.051v.564h4.871l-.051-.359-.154-.205-.205-.051-4.461.051m47.125 9.795-.41-.154h-1.947l-.463.462c-.273.443-.428.854-.461 1.23-.033.375.084.751.359 1.129l.461.409-.205.152-.666-.513c-.445-.409-.686-.853-.719-1.332-.033-.308.035-.666.205-1.076l.205-.462-.871.308c-.615.41-.891 1.01-.82 1.795.035.445.256.855.666 1.231l.615.461h4.615v-.615l.41-.615c.172-.479.137-1.01-.102-1.591l-.872-.819"/><path fill="none" d="M136.197 0h106.639v40H136.197zM0 0h136.197v40H0z"/></svg>