<svg xmlns="http://www.w3.org/2000/svg" width="93" height="40" viewBox="0.769 0 93 40" xml:space="preserve"><path d="m89 19.84-17.046-2.631c-.346-.054-.704-.028-1.053-.028l-3.438-.014-11.218-.046-11.041-.044-3.213-.014-.639-.002c-.321-.001-.609.402-.996.402h-2.531c-.62 0-.684.138-.684-.463v-6.011c0-.171-.516-.073-.648-.073-.096 0-.648-.062-.648.044v6.101c0 .348.176.804-.221.804H31.976c-.25 0-.292.361-.604.418-.288.051-.537-.081-.701-.311-.076-.105-.063-.107-.18-.107h-2.518c-.372 0-.503.419-.901.371-.232-.029-.442-.371-.615-.371h-2.775a.883.883 0 0 0-.121.136.703.703 0 0 1-.504.234c-.412.045-.503-.37-.88-.374l-1.396-.016-1-.013c-.077-.001-.127.123-.159.176-.055.09-.382.196-.487.194-.149-.002-.354-.124-.496-.174-.077-.026-.148-.196-.221-.196h-2.384c-.362 0-.349.051-.662.198-.295.138-.553.305-.837.021-.258-.258-.617-.148-.973-.141-.765.017-1.283-.198-2.01-.462-.375-.137-.978-.022-1.369-.023l-5.026-.024c-.513-.003-.956.498-1.063.957-.156.665-.064 1.445-.083 2.123-.018.622-.01 1.245-.01 1.867v1.015c0 .265.292.657.405.896.048.104.294.646.369.646h5.911c.407 0 .874.08 1.257-.077.319-.131.676-.346 1.016-.417.346-.071.778 0 1.131 0 .343 0 .437-.063.738-.154.226-.07.427-.087.602.123.121.079.074.154.221.154h2.539c.411 0 .297-.068.627-.288.482-.322.621.288 1.002.288h2.526c.35 0 .451-.446.898-.318.106.03.312.318.377.318h2.809c.064 0 .224-.223.285-.257.282-.162.67-.082.894.142.199.198.516.115.787.115h1.419c.155 0 .708.092.813-.04.29-.364.697-.314 1.079-.144.277.121.275.154.616.154H35.857c.043 0 .019.414.019.462v3.883c0 .307-.005.256.32.256.09 0 .915.023.915-.021l.008-.894.021-2.657c.002-.24-.034-.228.182-.228l.803-.003 3.237-.005c3.564-.006 7.13-.011 10.694-.019l19.924-.034c1.755-.002 3.519-.142 5.263-.343 2.595-.3 5.132-.848 7.493-1.999 1.642-.799 2.935-1.844 4.264-3.062m-12.509-.308c.356.204.541.52.452.925-.025.116-.085.742-.31.742h-1.897c-.289 0-.563-.61-.563-.833-.02-.197.238-.861.505-.866l1.076-.019c.22-.003.55-.083.737.051"/><path fill="none" d="M92.999 0h93v40h-93z"/><path fill="none" d="M0 0h93v40H0z"/></svg>