<svg xmlns="http://www.w3.org/2000/svg" width="88" height="40" viewBox="0.77 0 88 40" xml:space="preserve"><path d="M79.889 13.682c-2.439.664-4.924 1.355-7.436 1.676l-4.813.614c-2.414.309-4.881.404-7.314.508-5.094.217-10.201-.132-15.18-1.259-.203-.046-.66-.257-.838-.217-.152.035-.359.266-.486.36-.127.093-.301.034-.453.022.016.085-.018.179 0 .264l-.352-.117v.352a24.286 24.286 0 0 0-.324-.146c-.002.088-.055.176-.059.264-.324-.108-.33-.169-.471.146-.063-.042-.239-.21-.287-.144-.154.216-.158.155-.389.026-.013.081-.076.154-.088.235-.188-.127-.361.073-.412.037-.275-.191-.247-.203-.469.05a51.956 51.956 0 0 0-.235-.234c-.3.374-.313.251-.728.026-.57-.309-1.209-.451-1.852-.504-.58-.048-1.17-.024-1.753-.022l-4.806.022c-2.246.01-4.503.002-6.746.14l-4.781.292c-1.25.076-2.506.373-3.741.569-1.171.186-2.333.608-3.452.987-1.543.524-3.029 1.034-4.334 2.036a14.528 14.528 0 0 0-3.205 3.392c-.393.584-.834 1.046-.885 1.756-.045.637.92.946 1.334 1.153.23.116.225.584.277.82.059.263.43.33.664.422.462.18 1.135.35 1.615.184l1.163-.401c.492-.169.829-.514 1.243-.831 1.248-.958 2.518-1.868 4.072-2.238.803-.19 1.683-.264 2.506-.279 1.771-.033 3.544.28 5.233.798.526.162.968.425 1.515.347.264-.037.631-.422.849-.574.913-.636 2.13-1.015 3.239-1.033.711-.011 1.415.133 2.083.369.413.144.896.545 1.321.515.318-.023.504-.266.773-.434a4.905 4.905 0 0 1 1.916-.691c1.133-.16 1.952.127 2.752.884.406.385.692.688.99 1.158.346.542.444.841 1.119.919.538.063.727-.021 1.084-.377l1.267-1.267.249.992c.067.27.186.184.462.184h2.431c.246 0 .525-.371.748-.482.396-.199.766.016 1.16.139.242.075.428.316.658.173.471-.296.799-.441 1.328-.271.098.031.725.32.752.299.227-.182.58-.451.879-.475.191-.016.656.092.822.193.07.043.313.248.379.198.205-.154.4-.311.637-.414.369-.161.705-.031 1.08.047.113.024.234.211.344.21.123-.002.434-.298.555-.362.498-.264.783-.195 1.305-.094.127.024.229.103.342.167.16.094.283-.099.42-.206.494-.388 1.08-.643 1.633-.191.367.301.498.212.975.136.678-.109 1.355-.21 2.033-.314 2.795-.43 5.625-1.018 8.289-1.986 2.977-1.082 5.939-2.522 8.543-4.333 1.752-1.219 3.424-2.55 5.1-3.869l1.859-1.463c-1.367.383-2.738.765-4.109 1.147M33.88 18.735c0-.088-.033-.617.028-.617h2.44c-.023.235-.01.361.059.588l-2.527.029"/><path fill="none" d="M88 0h73.203v40H88zM0 0h88v40H0z"/></svg>