<svg xmlns="http://www.w3.org/2000/svg" width="21" height="40" viewBox="0.758 0 21 40" xml:space="preserve"><path d="M16.764 21.076v-4.279c0-.718.062-1.563-.082-2.198-.105-.464-.323-.632-.494-.987-.117-.24-.124-.413-.124-.727 0-.121-.252-.357-.288-.425-.131-.239-.179-.673-.35-.844-.381-.381-.234-1.188-.617-1.563-.186-.181-.104-.72-.287-.905-.181-.18-.317-.567-.393-.761-.205-.544-.432-1.076-.615-1.604.028-.288-.201-.114-.289-.288-.051-.098.075-.378 0-.454-.047-.046-.362-.014-.412-.041-.299.113-.608.684-.781 1.029.067-.454-1.954-.247-2.229-.247H7.825c-.239 0-.624-.076-.854 0-.472.156-.831 1.727-.656 1.727.084 0 1.028-.014 1.028.06v1.538c0 .395-.248.622-.248 1.05 0 .25-.822.264-1.072.308-.509.089-2.468.003-1.931 1.077.022 1.171 0 2.347 0 3.52v16.424c0 .408 1.219.796 1.55.927 2.151.841 4.179.654 6.369.198.726-.151 1.613-.405 2.2-.85.179-.135.248-.028.248-.241V12.583c.268.193.422.549.616.782.2.235.323.557.496.823.093.143.436.503.492.658.212.566 0 1.633 0 2.245v12.874c0 .211-.248.272-.248.637 0 .338-.044.329.29.329.223 0 .226-.011.328-.082.39-.269.33-.692.33-1.255l.001-8.518zm-2.717 5.988v.864c0 .66-.011.577-.652.658l-2.729.344c-.408.05-.879.189-1.291.137-1.533-.192-3.066-.385-4.602-.575-.329-.041-.229-.218-.229-.522v-1.028l4.847.493c.702.071 1.553-.163 2.249-.238.805-.084 1.604-.169 2.406-.255l.001.122zm0-11.923v.864c0 .66-.011.577-.652.658l-2.729.344c-.408.05-.879.189-1.291.137-1.533-.192-3.066-.385-4.602-.575-.329-.041-.229-.218-.229-.522v-1.028l4.847.493c.702.071 1.553-.163 2.249-.238.805-.084 1.604-.169 2.406-.255l.001.122z"/><path fill="none" d="M20.777 0h19.73v40h-19.73zM0 0h20.777v40H0z"/></svg>