<svg xmlns="http://www.w3.org/2000/svg" width="36" height="40" viewBox="0.25 0 36 40" xml:space="preserve"><path d="m8.704 19.472 1.801 1.009-.747 1.275-1.76-1.01v2.022H6.551V20.7l-1.847 1.056L4 20.481l1.802-1.009L4 18.417l.747-1.274 1.804 1.055v-2.11h1.447v2.066l1.76-1.011.703 1.274-1.757 1.055zM11.76 7.964l2.151-1.25-.86-1.486-2.072 1.212V4.016h-1.76v2.502l-2.188-1.29-.859 1.486 2.189 1.25-2.189 1.252.859 1.486 2.188-1.251v2.501h1.761V9.528l2.071 1.174.86-1.486-2.151-1.252zm17.774 1.662 1.757-1.055-.702-1.274-1.757 1.011V6.243h-1.451v2.109l-1.802-1.055-.748 1.274 1.76 1.055-1.76 1.011.704 1.274 1.846-1.055v2.065h1.451V10.9l1.757 1.011.748-1.274-1.803-1.011zm-13.388 2.019-1.323 1.146h-.618c-.412 0-.616.207-.616.617v2.822l1.014.97v2.073h.485v2.116h-.485v2.204h.485v2.117h-.485v2.204h.485v2.116h-.485v2.028l-1.014 1.809v1.499c0 .411.204.616.616.616h7.85c.412 0 .618-.205.618-.616v-1.499l-1.06-1.809V30.03h-.441v-2.116h.441V25.71h-.441v-2.117h.441V21.39h-.441v-2.116h.441v-2.073l1.06-.97v-2.072l1.763 1.014v12.389l-.616.31c-.471.266-.824.5-1.06.707-.264.234-.322.484-.175.749l.66.133 2.074-1.015V14.554l-4.102-6.57h-4.851l-.883.134c-.264.116-.396.366-.396.749 0 .589.353.927 1.058 1.015v1.763"/><path fill="none" d="M35.337 0h20.776v40H35.337zM0 0h35.337v40H0z"/></svg>