<svg xmlns="http://www.w3.org/2000/svg" width="53" height="40" viewBox="0.618 0 53 40" xml:space="preserve"><path d="M49.094 9.701c0 .879.135 1.34-.459 1.984-.35.379-1.695.123-2.195.123-.834 0-.65.497-.65 1.203 0 .555.314 1.433-.346 1.433h-5.439c-.715 0-.389.39-.324.981.045.408-.5.384-.418.772.072.34.141.681.201 1.023-.885 0-1.768-.017-2.652-.047-.201-.007-1.086 1.877-1.309 2.137-.469.542-.834 1.023-1.572 1.212-.473.12-1.002.066-1.484.076-1.406.027-2.539-.041-3.762-.839v8.433c0 .469-.564.107-.766.381-.09.123 0 .653 0 .797v6.164c0 .124.08.465-.074.465h-5.457c-.162 0-.074-2.17-.074-2.4v-4.244c0-.9-.373-.781-1.223-.781h-2.012c-.516 0-.66-.476-.957-.879-.105-.142.145-.777.18-.938l.51-2.26c.438-1.94.855-3.889 1.324-5.821.146-.606.266-.785-.023-1.316-.346-.639-.658-1.399-1.18-1.921-.627-.627-2.438-.265-3.219-.206-.41.03-.635.312-.924.601-.439.44-.785-.345-1.004-.481-.213-.134-.938 0-1.18 0h-2.355c-.072 0-1.016-.016-1.016.013v3.481c0 .076-.986.339-1.197.339-.574 0-.934-.06-1.477-.216-.471-.136-1.041-.003-1.494-.167-.367-.133-.734-.581-.91-.91-.416-.775.125-1.568.195-2.335.188-2.062.17-4.167.279-6.24l.186-3.465C4.855 5.124 5.992 4.697 5.977 4c4.141.244 8.277.562 12.381 1.165.395.059.803.129 1.201.129 0 0 .244.273.264.335.109.341-.014.488-.264.648-.846.545-1.922.405-2.896.405-.955 0-1.902-.089-2.855-.16l-2.143-.159c-.139-.011-.896.031-.967-.111l-.025-.048c-.105.641.402.442.898.48.545.043 1.09.08 1.631.145 1.074.128 2.119.141 3.201.141h16.084c.215 0 .18-.684.215-.898.098-.578-.07-.796.521-.865.832-.097 1.848-.186 2.656.036.359.098.549.536.699.86.211.45.168.436.637.436h4.256c.258 0 .049-.049.15-.239.149-.28.002-.673.279-.783.553-.221 2.486-1.297 3.068-.812.861.719.678 1.348.678 2.432 0 .535-.299 2.036.623 2.036h1.807c.656.001.658-.039 1.018.528m-19.69 9.103c1.184.417 2.367.287 3.621.287 1.021 0 2.223-.265 1.936-1.629-.313-1.489-2.244-1.054-3.389-1.054-.563 0-1.402-.135-1.928.127-.732.365-.925 1.751-.24 2.269M7.223 6.778c-.463 0-.67-.069-.67.481 0 .395.006.786.02 1.18.031.807.104 1.606.172 2.411.318-1.326.648-2.627 1.055-3.929a30.405 30.405 0 0 1-.577-.143"/><path fill="none" d="M53.106 0h106.002v40H53.106zM0 0h53.106v40H0z"/></svg>