<svg xmlns="http://www.w3.org/2000/svg" width="19" height="40" viewBox="0.981 0 19 40" xml:space="preserve"><path d="M6.558 9.661V7.897C5.853 7.809 5.5 7.471 5.5 6.882c0-.382.132-.632.396-.749L6.778 6h4.851l4.102 6.57v13.89l-2.074 1.015-.66-.132c-.147-.265-.089-.515.175-.75.235-.207.589-.441 1.06-.707l.616-.309V13.188l-1.763-1.014v2.073l-1.06.97v2.073h-.441v2.116h.441v2.205h-.441v2.117h.441v2.205h-.441v2.116h.441v2.029l1.06 1.808v1.5c0 .411-.206.616-.618.616h-7.85C4.204 34 4 33.795 4 33.384v-1.5l1.014-1.808v-2.029h.485v-2.116h-.485v-2.205h.485V21.61h-.485v-2.205h.485V17.29h-.485v-2.073L4 14.247v-2.822c0-.411.204-.618.616-.618h.618l1.324-1.146z"/><path fill="none" d="M19.73 0h35.337v40H19.73zM0 0h19.73v40H0z"/></svg>