<svg xmlns="http://www.w3.org/2000/svg" width="88" height="40" viewBox="0.77 0 88 40" xml:space="preserve"><path d="M81.719 16.672c-2.687.233-5.324.597-7.978-.112-1.418-.379-2.739-1.008-3.988-1.769-.284-.174-.567-.348-.852-.521-.28-.169-.324-.133-.644-.069-1.189.24-2.353.525-3.563.604l-5.295.345c-1.07.07-2.102-.092-3.17-.206-1.321-.141-2.658-.227-3.964-.471-.65-.122-1.31-.221-1.953-.369-.313-.072-.624-.267-.846-.013-.38.435-.724.72-1.298.843-.399.085-.806.201-1.215.223-.551.029-.657-.198-.946-.584-.434-.575-1.26-1.158-2.035-.923-1.293.392-2.531.977-3.908.896-1.048-.062-2.021-.016-3.053-.32-.938-.277-1.703-.752-2.689-.86-1.288-.139-2.527-.267-3.82-.267-5.349 0-10.757.391-15.877 2.023-1.929.615-3.891 1.188-5.739 2.017-.679.304-1.313.704-1.958 1.073-.768.438-1.632.874-2.198 1.566-.209.255-.42.506-.636.755-.287.332.16.667.373.923.388.465.81.912 1.253 1.324.452.421.83.907 1.437.487a24.375 24.375 0 0 1 1.645-1.062c1.289-.745 2.607-1.318 3.974-1.916 1.783-.78 3.63-1.561 5.54-1.964 1.413-.299 2.843-.704 4.272-.903l4.451-.62c2.427-.338 4.933-.33 7.374-.216 1.318.062 2.635.147 3.953.23.56.035 1.127.126 1.688.126.086 0 .11.603.15.709.129.338.238.59.449.881-1.228-.112-2.227-.977-3.418-1.1a180.357 180.357 0 0 0-4.403-.398c-2.473-.194-5.024-.1-7.486.188-3.924.459-7.89 1.155-11.532 2.752-1.91.838-3.916 1.634-5.664 2.777-.606.396-1.261.73-1.734 1.282-.226.263.947 1.511 1.147 1.74.571.651 1.106 1.24 2.021 1.11.148-.021.241-.482.344-.592.27-.292.531-.472.866-.691 1.518-.993 3.337-1.583 5.018-2.249 2.513-.996 5.138-1.656 7.749-2.342 1.178-.309 2.509-.266 3.718-.37 1.104-.095 2.207-.216 3.313-.266l5.062-.23c1.228-.055 2.497.252 3.713.41 1.125.145 2.256.255 3.384.382.28.031.565.033.848.049.24.013.635-.077.838.012.211.091.355.481.451.66.24.44.411.86.363 1.359a7.038 7.038 0 0 1-.434 1.858c-.058.159-.432.417-.229.595.178.157.743-.293.84-.39.846-.834 1.139-2.225.661-3.302.735.584 1.764-.144 2.351-.579.171-.126.234-.316.332-.504.061-.114.062-.442.131-.495.24-.185.472-.399.789-.435.34-.038.628.214.509.542.194-.187.447-.3.712-.3.245 0 .432.003.656.133.152.088.252.351.402.407.178.066 1.872-.083 1.9-.179.062-.2.024-.372.237-.346l.794.095 2.697.324c2.685.323 5.367.651 8.051.981 1.209.149 2.42.332 3.632.447 1.238.118 2.53.371 3.775.314 1.356-.062 2.705.024 3.983-.457 1.822-.686 3.534-1.358 4.845-2.876A55.687 55.687 0 0 0 84 16.282l-2.281.39zM7.515 20.904c-.778.778-1.727-.719-.759-1.118.383-.158.874.079.955.495.042.216-.112.431-.196.623-.141.14 0 0 0 0zm2.792-.99c-.716.716-1.741-.561-.844-1.107.383-.234.91-.002 1.029.424.067.233-.098.471-.185.683-.141.14 0 0 0 0zm20.111-4.833c-.724.724-1.76-.537-.91-1.113a.731.731 0 0 1 1.067.325c.118.287-.049.524-.157.788-.141.14 0 0 0 0zm2.792.18c-.711.71-1.757-.508-.91-1.082.354-.241.894-.095 1.067.302.122.278-.052.523-.157.78-.141.14 0 0 0 0zm-20.383 8.014c-.705.706-1.767-.502-.909-1.083.342-.232.815-.107 1.026.239.186.305.002.556-.117.844-.139.141 0 0 0 0zm2.252-.96c-.644.644-1.74-.363-1.021-.99.641-.643 1.743.357 1.021.99-.141.14.159-.14 0 0zm20.622-3.242c-.729.729-1.747-.608-.841-1.061.646-.322 1.427.476.841 1.061-.139.14.14-.14 0 0zm2.491.271c-.193.084-.408.238-.624.196-.425-.08-.702-.542-.524-.947.442-1.008 1.95.062 1.148.751 0 0 .14-.121 0 0zm18.221-2.462-.569-.3 7.803.191 5.11.125 1.504.037c.386.01.433.073.771.338l-14.619-.391z"/><path fill="none" d="M88 0h88.001v40H88zM0 0h88v40H0z"/></svg>