<svg xmlns="http://www.w3.org/2000/svg" width="95" height="40" viewBox="0.521 0 95 40" xml:space="preserve"><path d="m90.463 5.74-.337-1.179-.281-.337H72.61l-.394.169-.394-.057H58.407l-.505-.225-.395.225H51.67v1.628h-1.685v.786h-1.123v-.897l-.392-.505-.394.056v-1.01L47.74 4h-2.808v1.517H33.144v.168h-6.849V5.46H14.056l-.338-.281-3.592-.056-.899-.506v.955L8.049 7.817l-.729 3.649L5.635 10.4l-.281 1.46-.618-.057c-.411 0-.655.188-.729.562-.038.3.075.542.336.729l.393.112 2.078.225-.114.842-.055 1.292.448.449 1.46.505c.749.262 1.234.506 1.46.729.3.263.394.618.281 1.067l-.394 1.01-.786 1.629a33.773 33.773 0 0 0-2.021 5.782 47.695 47.695 0 0 0-1.066 6.4l-.112 2.75 12.07.114-.618-.897.113-1.348 2.862-12.126.393.111 1.011-.111.843-.169.842.112 1.461.447.842.338 5.838-.224.898-.169.562-.617 2.246-5.502a1.53 1.53 0 0 1 .448-.617l.225-.112h12.744l.111-1.909.281-.225v-.954l-.281-.225V9.839h1.18v.843h1.908v1.01h5.672l.504.169.337-.226h13.417l.338-.111.224.168h17.46l.225-.505.337-1.179.169-2.19-.114-2.078zM33.817 16.521l-.842 2.358-1.123 2.526-2.47.168-2.75-.113-1.236-.112-1.628-.056-1.46-.619-.953-1.123c-.227-.487-.264-1.01-.113-1.571.111-.524.373-1.011.785-1.46.301-.3.786-.562 1.46-.786l.897-.225-.616.729c-.488.637-.769 1.329-.842 2.078-.038.448.092 1.01.394 1.684l.448.955.394-.281-.225-.562-.114-1.122c.037-.525.188-.992.449-1.404l.674-.898 1.349-1.403 6.399-.056.393.058.619.338.111.561v.336z"/><path fill="none" d="M94.576 0h63.669v40H94.576zM0 0h94.576v40H0z"/></svg>