<svg xmlns="http://www.w3.org/2000/svg" width="93" height="40" viewBox="0.77 0 93 40" xml:space="preserve"><path d="M86.75 22.427 89 21.048c-2.124-.492-4.242-1.06-6.39-1.444-3.32-.595-6.639-1.189-9.958-1.785l-5.138-.921c-1-.179-1.914-.158-2.942-.142.322.328.433 1.081-.209 1.081-.371-.014-.479-.493-.618-.765-.157-.302-.388-.2-.724-.206l-1.21-.02c.397.262.685 1.142-.052 1.161-.435.011-.565-.448-.74-.762-.241-.431-.205-.457-.686-.474l-1.222-.045c.241.311.7 1.019.122 1.234-.447.167-.785-.118-.937-.481-.147-.36-.139-.729-.545-.714l-1.342.051c.315.301.58 1.286-.161 1.207-.47-.049-.585-.486-.76-.847-.228-.467-.257-.39-.778-.39h-1.271c.293.369.671 1.208-.151 1.249-.473.023-.587-.515-.75-.849-.207-.425-.207-.37-.681-.37h-1.3c.251.373.568 1.382-.271 1.229-.383-.059-.499-.554-.659-.858-.221-.418-.289-.352-.77-.398l-1.271-.124c.171.218.347.522.389.795.075.48-.408.638-.765.435-.397-.227-.555-.822-.759-1.218-.066-.129-1.249-.064-1.402-.07l-1.515-.063c.229.264.516.645.504 1.005-.009.229-.678.708-.81.423l-.484-1.046c-.135-.291-.403-.478-.635-.697-.067-.064-.347-.016-.433-.016H37.722c-.479 0-.489.087-.494-.378l-.026-2.245-.058-4.902c-.006-.512-1.412-.568-1.412-.104v7.953c0 .118-.266-.004-.271.086l-.059.821c-.087-.226-.061-.393-.304-.386l-1.105.033-2.556.076c-.287.009-.253.114-.373.395-.032.076-.323.009-.402.004-.119-.009-.095-.329-.182-.393-.11-.082-.548-.021-.681-.026l-1.473-.056c-.315-.013-.631-.024-.947-.036-.09-.004-.102.088-.145.163-.13.226-.113.253-.37.27-.242.017-.222.023-.331-.195-.038-.075-.057-.21-.151-.209l-1.003.009-2.29.02c-.064 0-.141.224-.167.273-.109.206-.111.176-.348.152-.224-.022-.177-.425-.461-.425h-2.541c-.323 0-.331-.018-.545.236-.372.439-.39-.1-.671-.236-.144-.069-.522.02-.677.025l-1.488.055-1.019.037c-.249.01-.234.414-.489.429-.37.022-.425-.052-.738-.184-.251-.105-.542-.298-.818-.305l-2.472-.051c-1.176-.025-2.437-.197-3.601-.057-.689.083-1.324.141-2.021.141-.158 0-.636-.077-.705.132-.102.301-.077.589-.077.908 0 1.293-.347 2.541-.232 3.848.06.681.235 1.277.249 1.967.005.259-.063.607.098.83.217.304.625.133.979.101l.485-.042c.033-.003.205.214.253.239.226.115.622.091.877.102.606.024 1.206.048 1.813.031 1.481-.042 2.956-.096 4.435-.182.27-.017.459-.142.701-.264.342-.17.439-.287.843-.287.188 0 .193.444.419.452l1.11.04 1.375.049c.159.006.618.109.761.028.158-.088.27-.767.581-.318.224.324.226.287.606.28l2.553-.048c.33-.006.173-.269.431-.395.409-.199.313.451.533.451h1.897c.431 0 1.335.212 1.546-.21.074-.149.437-.397.57-.151.133.247.117.364.383.354.761-.028 1.521-.057 2.282-.084.24-.01.48-.018.721-.027.217-.007.032-.464.337-.44.16.013.235-.027.292.121.019.047.075.287.129.289l.633.014 2.433.055c.276.006.553.011.83.019.191.004.207-.196.288-.357.01.133-.013.794.103.819.279.062.228.069.23.339.009.794.016 1.59.024 2.385l.027 2.65.005.589c.002.092.619.238.69.238.063 0 .69-.129.69-.243l.003-.555.014-2.635.013-2.355c0-.052-.034-.243.03-.243l.694-.004c1.631-.008 3.264-.016 4.895-.026.511-.003 1.021.186 1.44.456.248.159.164.204.448.202l6.976-.035c7.025-.035 14.053-.071 21.078-.104.827-.004 1.648.006 2.473-.053 4.079-.289 7.954-1.63 11.455-3.706m-16.177-2.76h2.071c.323 0 .536.26.628.56.182.594-.06 1.095-.551 1.421-.179.117-.616.029-.821.029h-1.161c-.296 0-.689-.349-.793-.599-.253-.611.185-1.078.627-1.411"/><path fill="none" d="M93.001 0h83.001v40H93.001zM0 0h93v40H0z"/></svg>