<svg xmlns="http://www.w3.org/2000/svg" width="50" height="40" viewBox="0.566 0 50 40" xml:space="preserve"><path d="M46.436 8.843c-.043-.794-.086-1.587-.131-2.381-.029-.54.066-1.193-.457-1.521-.615-.342-1.129-.253-1.838-.25l-3.902.014-8.104.03-.608.002c-.02 0 .014.46-.014.46h-5.993c-.24 0 .078-.46-.139-.46H11.28c-.102 0-.137-.495-.221-.562-.123-.099-.613-.061-.766-.077-.166-.016-.612-.146-.767-.077-.213.097-.255.55-.46.665-.479.269-1.21-.124-1.712.127-.5.25-.987.906-1.302 1.354-.554.79-1.464 1.98-1.617 2.953-.182 1.155-.402 3.243.547 4.096.854.769 2.12.867 3.068 1.467 1.068.673 1.262 1.242.983 2.445-.16.685-.389 1.33-.65 1.979a105.892 105.892 0 0 1-1.709 3.981c-.743 1.648-1.292 3.315-1.8 5.041-.441 1.497-.979 3.061-.856 4.646.062.807.8.721 1.454.852 1.389.276 2.777.556 4.166.832l7.605 1.522c.473.094 2.6-.147 1.449-.867-.281-.176-1.184-.527-1.205-.867l-.127-1.95c-.059-.902-.209-1.717.061-2.581.525-1.688 1.155-3.345 1.767-5 .151-.413 1.155-3.689 1.403-3.683l1.209.036 4.622.136c2.031.059 4.083-.154 6.086-.487.434-.073 1.516-.053 1.414-.687-.08-.502-.168-1.003-.225-1.509-.086-.786-.211-1.582-.203-2.376.008-1.026.576-1.373 1.504-1.585.76-.175 1.701-.04 2.475-.051l4.885-.072 3.086-.046c1.01-.014.969-1.587.979-2.25.013-1.097.073-2.203.013-3.299zm-13.854 9.409c-.031.516.094 1.227-.477 1.504-.39.191-1.087.086-1.509.058-1.131-.077-2.219-.12-3.347.008-1.347.153-4.798.486-4.798-1.492 0-.892-.104-1.819.51-2.559.66-.711 1.421-.664 2.298-.616.146.007.228 1.491.253 1.71.08.681 1.198 1.454 1.75 1.777.549.319 1.051.699 1.728.472.709-.239-.407-.511-.527-.55a1.592 1.592 0 0 1-.837-.58c-.42-.565-1.074-1.205-1.166-1.934-.122-.97.112-.893.864-.885l3.76.042c.121-.328.992.432 1.123.615.422.72.428 1.623.375 2.43z"/><path fill="none" d="M50.462 0h50.022v40H50.462z"/><path fill="none" d="M0 0h50.463v40H0z"/></svg>