<svg xmlns="http://www.w3.org/2000/svg" width="114" height="40" viewBox="0.383 0 114 40" xml:space="preserve"><path d="M109.303 18.864c-1.885.245-3.764.179-5.65.008-.254-.023-.436-.182-.695-.182H97.59c-.41 0-.383.017-.723.216-.373.219-.748.425-1.188.206-1.104-.551-1.303.506-1.686 1.228-.219.412-.797-.372-.797.366 0 .562.219 1.117-.389 1.31-.775.246-1.631-.172-2.418-.172h-1.916c-.326 0-1.236-.197-1.236.198 0 .433.025.308-.346.362-.236.035-.531-.032-.77-.047-.207-.014-.469.015-.666-.059-.324-.121-.248-.171-.377-.454.34-.283-.787-.172-.996-.172H72.75c-1.461 0-2.848.125-4.303.251-.414.035-.828.074-1.244.114-.467.048-1.289.332-1.707.248-.238-.048-.428-.25-.611-.396-.09-.073-.018-.39-.082-.39h-5.674c.156 1.975.318 3.948.496 5.919.057.641.807 5.033.215 5.181a55.202 55.202 0 0 1-5.818 1.125c-.521.073-2.01.644-2.135-.114-.154-.937-.217-1.902-.32-2.844-.154-1.449-.262-2.901-.379-4.354-.057-.723-.115-1.446-.174-2.168-.002-.042-.707-.076-.754.004-.18.306-.311.844-.758.703.113-.245.23-.489.346-.735h-.766c-.229 0-.104.103-.162.278-.197.565-.396 1.131-.592 1.697-.156.45-.529 1.303-1.047 1.404l-1.797.352c-.355.069-.613.034-.98-.012-.383-.048-1.145.01-1.469-.201a9.794 9.794 0 0 0-1.184-.652c-.113-.054-.402-.298-.51-.276-.197.041-.355.495-.426.635-.836 1.669-1.529 3.395-2.428 5.033-.193.353-.436.649-.807.788-.447.167-1.539-.638-1.859-.869-.854-.616-1.707-1.233-2.563-1.849-.121-.087-.254-.162-.379-.241.551-.685.859-1.654 1.291-2.427.598-1.066 1.619-1.721 2.279-2.731.568-.875.463-2.745-.896-2.745H29.145c-.764 0-1.584.378-2.297.622-1.639.56-3.277 1.136-4.895 1.757a493.99 493.99 0 0 1-11.227 4.127c-1.652.589-3.396 1-5.176.964C4.129 29.845 4 28.991 4 27.762c0-.603.211-1.1.305-1.688.064-.409-.078-.921.057-1.297.332-.934.219-1.852.182-2.832a12.472 12.472 0 0 0-.082-1.076c-.035-.279-.068-.557-.104-.837-.016-.113-.164-.161-.227-.361-.143-.457-.131-.868-.131-1.343 0-.543.605-.543 1.023-.648.924-.232 1.91-.198 2.857-.198.438 0 .875-.021 1.311-.039.344-.015.434-.999.686-1.258.584-.601 2.129-.414 2.895-.43l5.506-.114c1.002-.02 2.004-.042 3.006-.06.502-.008 1.004-.018 1.508-.024.166-.003 1.145-.144 1.264.013.514.667.762 1.764 1.801 1.419.84-.279 1.646-.702 2.398-1.167.914-.564 2.01-1.449 3.119-1.449.906-.037 1.814.002 2.723-.039.484-.022.906.086 1.219-.287.389-.469.531-.67 1.086-.987.76-.434 1.494-.036 2.299.165.359.09 1.301.933.617 1.149.477.087.389-.119.389-.511 0-.287-.342-.432-.492-.694-.279-.491-.617-1.15-.588-1.731-.967.148-1.934.297-2.898.451-.797.125-1.609.022-2.416.022-1.027 0-2.055-.001-3.082-.021-.895-.017-1.822-.135-2.691-.011-1.002.144-2.025-.019-3.031-.088-.256-.019-.348-1.993-.375-2.348a8.498 8.498 0 0 1 .01-1.462c.035-.419.27-.762.334-1.145.105-.631 1.943-.32 2.443-.32 1.824 0 3.668.118 5.492.18 1.881.065 3.859-.056 5.727.169.857.103 1.811.395 2.672.34 1.025-.067 2.047-.114 3.072-.154a93.554 93.554 0 0 1 2.598-.06c.461-.006.902.014 1.357-.058.123-.018.449-.006.543-.072.344-.247.266-.544.775-.691.775-.366 1.57-.043 2.361.078.176.027.268.294.404.398.146.185.621.306.863.346.826.133 1.762.155 2.602.113 2.016-.102 4.008-.314 6.016-.494.939-.083 1.883-.074 2.824-.091.746-.013 2.271-.081 2.746.594.482.683.418 2.113.191 2.865-.156.516-.531.982-.811 1.439-.207.341-2.541.15-2.865.15-1.02 0-2.072-.005-3.08-.133-1.088-.135-2.23-.423-3.313-.22-.439.083-1.205-.199-1.59.006-.16.086-.332.542-.424.694-.195.319-.186.183-.455.331-.992.542-2.326.987-2.705 2.127h23.918c1.15 0 2.297-.295 3.445-.347.361-.016.738 0 1.096-.067.516-.097.559-.221.967-.493.32-.214.715-.128 1.094-.128.537 0 .678-.089.996.345.467.64.439.604 1.195.604H92.633c-.127-.457-.643-1.774-.238-2.181.303-.301.656-.737 1.078-.86.234-.069.973.069 1.053.295.301.86.451 1.688.609 2.587.064.353.047.703.047 1.061 0 .309-.057.262.172.405.244.151.24.487.043.679.221.002.479-.172.6-.172h.582c.24 0 .24.093.416.129.344.071.695.042 1.047.042h10.69c.313 0 .709-.109.914.173.15.208.104.847.133 1.102.061.473.121 1.179-.476 1.317m-67.311 5.44c-.826.814 1.682 1.338 2.16 1.338 1.012 0 2.285.259 2.668-.932.158-.494.646-1.276-.17-1.127-.576.104-.932.291-1.543.291a11.942 11.942 0 0 0-3.115.43"/><path fill="none" d="M113.817 0H227.03v40H113.817zM0 0h113.816v40H0z"/></svg>