<svg xmlns="http://www.w3.org/2000/svg" width="106" height="40" viewBox="0.931 0 106 40" xml:space="preserve"><path d="M53.07 21.232c0-1.862-2.195-1.415-3.436-1.415-.672 0 .037 2.086.113 2.441-.354.234-.986-.743-1.123-.929-.346-.412-.348-1.005-.391-1.512-.93.618-1.42 1.331-.826 2.447.494.929 1.34.824 2.229.824.732 0 1.516.081 2.246-.017 1.024-.138 1.024-1.029 1.188-1.839M90.232 8.877c.016.174.092 1.221.363 1.221h1.996c.371 0 .223-.853.238-1.16.031-.573.059-1.147.088-1.721-.426 0-1.502-.213-1.855 0-.33.199-.658 1.287-.83 1.66m5.42 5.03c-.074-.038-.33-.293-.371-.293h-.914c-.713 0-.744.228-1.182.802-.367.48-.975-.322-1.197-.411-.418-.17-1.254 0-1.701 0-.152 0-1.324-.067-1.324.058 0 .941-.184 1.223-1.057 1.584-.359.147-.816.067-1.199.067H65.369c-.967 0-1.447.143-1.898-.879l-.453.741c-.055.09-.426.232-.426.146v5.405c0 .362.518.562.254.827-.521.52-.418 1.035-.367 1.732.08 1.062.043 2.209.211 3.257.328 2.061 1.148 4.17 1.758 6.154.068.217.42.119.098.488-.027.033-.156.051-.195.062-.494.158-.99.314-1.484.47-1.451.459-2.9.919-4.354 1.377-.426.136-1.775.861-2.121.288-.115-.192-.139-1.016-.195-1.253-.168-.678-.354-1.344-.541-2.016-.643-2.331-1.1-4.759-1.168-7.181 0-.265.199-1.125.051-1.32-.074-.097-.469-.143-.59-.181-.109-.035-.047-.437-.047-.552-.262.26-.463.635-.842.635h-4.142c-.32 0-.916-.12-1.219 0-.523.208-.555.866-1.035.063-.402-.672-1.09.396-1.283.693-.375.587-.691.73-.391 1.454.115.273.334.468.041.615-.373.185-.924.326-1.184.655-.639.813-1.061 1.94-1.502 2.878-.307.647-.537.816-.205 1.438.408.759.23.895-.471.918-1.16.039-7.844.565-6.377-1.964 1.744-3.008 3.488-6.018 5.234-9.026l.725-1.25c.404-.695.18-2.125-.541-2.567-.639-.39-1.574.313-2.105-.414-.402-.547-.264-2.337-.135-2.917-.266.021-.471-.087-.715-.181-.127-.051-.213-.308-.189-.308h-7.272c-.42 0-.34.677-.58 1.021-.693.999-1.902 1.44-2.494 2.525-.236.437-.346 1.044-.873 1.044-.898 0-.861-.011-1.303.763-.301.528-.248.605-.832.605h-2.164c-.523 0 .002-.732-.326-.732-.33 0-1.369-.186-1.623.005l-2.973 2.24-1.162.875c-.648.489-.912.237-.984-.482l-6.07 3.908c-.615.396-1.652.76-1.838 1.501-.285 1.137-1.695.994-2.426.336-.66-.59-.604-1.174-.604-1.987V13.116c0-.618-.145-1.511.107-2.104.406-.945 1.396-.964 2.266-.964h22.979c.463 0 .932-.144 1.084.451.104.427.158.33.584.33h6.127c.578 0 .145-.193.449-.311.6-.23 1.033-.226 1.684-.226.35 0-.037-.912.189-1.138.336-.336 1.033-.385 1.5-.425.512-.044 1.047 0 1.561 0 .277 0 1.252.165 1.424-.081.256-.364.883-.953.971-1.384.131-.651-.957-.842-1.176-1.415-.432-1.131.768-2.193 1.859-1.748.861.354.877 1.13.877 1.907v2.046c0 .235-.043.235.207.235.5 0 .381-.088.381-.578 0-.411 1.094-.203 1.449-.203.234 0 .357-.086.357.16l-.004.865h13.686c.461 0 .66.344.891.687.182.275.49-.09.662-.247.236-.086.666 0 .916 0 .203 0 .531.101.576-.122.047-.238.176-.367.434-.367h19.445c.945 0 2.424-.335 3.047.537a86.218 86.218 0 0 1 1.967-2.615c.201-.257.502-.808.848-.876.588-.118 1.107-.219 1.703-.219.518 0 .609-.135.609.359v5.822c0 .158 1.059.069 1.236.069.375 0 .486-.439.891-.439h3.908c1.154 0 2.904-.352 2.904 1.347 0 1.39-.838 1.438-1.953 1.438h-5.035"/><path fill="none" d="M106.639 0h120.306v40H106.639zM0 0h106.639v40H0z"/></svg>